<svg xmlns="http://www.w3.org/2000/svg" viewBox="0 0 100 100">
  <defs>
    <linearGradient id="grad" x1="0%" y1="0%" x2="100%" y2="100%">
      <stop offset="0%" stop-color="#667eea"/>
      <stop offset="100%" stop-color="#764ba2"/>
    </linearGradient>
  </defs>
  <rect width="100" height="100" rx="24" fill="url(#grad)"/>
  <path d="M24 58 C16 58 14 48 21 42 C24 35 32 33 39 36 C44 28 54 28 59 36 C66 33 74 38 72 46 C78 46 78 58 70 58 Z" stroke="white" stroke-width="3" fill="none"/>
  <path d="M50 38 L60 46 L60 55 C60 63 55 69 50 71 C45 69 40 63 40 55 L40 46 Z" fill="white" stroke="none"/>
  <rect x="46" y="52" width="8" height="10" fill="#6b5fd6" rx="2"/>
  <path d="M50 50 L50 46 C50 44 51 44 51 46 L51 50" fill="#6b5fd6"/>
</svg>