<svg xmlns="http://www.w3.org/2000/svg" viewBox="0 0 512 512">
    <defs>
        <linearGradient id="favGrad" x1="0%" y1="0%" x2="100%" y2="100%">
            <stop offset="0%" stop-color="#5f7cf0"/>
            <stop offset="100%" stop-color="#7a4bd9"/>
        </linearGradient>
    </defs>
    <rect x="16" y="16" width="480" height="480" rx="120" fill="url(#favGrad)"/>
    <path fill="#ffffff" d="M160 300 C120 300, 100 270, 120 240 C130 210, 160 200, 190 210 C210 170, 270 170, 290 210 C320 200, 360 220, 360 260 C390 260, 400 300, 360 320 L160 320 C140 320, 120 310, 160 300 Z"/>
    <path fill="#6b5fd6" d="M256 210 L210 255 C205 260, 210 270, 220 270 L240 270 L240 320 C240 330, 272 330, 272 320 L272 270 L292 270 C302 270, 307 260, 302 255 Z"/>
</svg>